<?xml version="1.0" encoding="UTF-8"?>
<!DOCTYPE svg PUBLIC "-//W3C//DTD SVG 1.1//EN" "http://www.w3.org/Graphics/SVG/1.1/DTD/svg11.dtd">
<!-- Creator: CorelDRAW 2017 -->
<svg xmlns="http://www.w3.org/2000/svg" xml:space="preserve" width="2550px" height="3300px" version="1.1" style="shape-rendering:geometricPrecision; text-rendering:geometricPrecision; image-rendering:optimizeQuality; fill-rule:evenodd; clip-rule:evenodd"
viewBox="0 0 2550 3300"
 xmlns:xlink="http://www.w3.org/1999/xlink">
 <defs>
  <style type="text/css">
   <![CDATA[
    .fil1 {fill:#E3332E}
    .fil0 {fill:#E4332E}
    .fil3 {fill:#E4332F}
    .fil2 {fill:#E4342F}
    .fil5 {fill:#EE7965}
    .fil7 {fill:#EE7D6A}
    .fil4 {fill:#EE8172}
    .fil9 {fill:#F18D82}
    .fil10 {fill:#F29483}
    .fil8 {fill:#F2998A}
    .fil11 {fill:#F4A394}
    .fil6 {fill:#F5B2A6}
    .fil12 {fill:#F6AD9D}
   ]]>
  </style>
 </defs>
 <g id="Layer_x0020_1">
  <metadata id="CorelCorpID_0Corel-Layer"/>
  <g id="_2101813225488">
   <path class="fil0" d="M1250.24 1953.74l58.53 54.34c-10.13,33.41 -32.66,55.23 -57.58,75.67 -25.47,-14.61 -48.72,-44.63 -59.47,-75.49l58.52 -54.52zm265.46 -404.12c-13.45,9.59 -11.39,7.34 -29.19,10.51 -151.18,21.9 -207.6,45.42 -385.15,17.75 -56.21,-8.76 -117.53,-24.79 -168.64,-46.74 -82.22,-35.33 -91.05,-60.97 -131.69,-85.27l15.38 143.05c32.44,31.16 24.83,50.89 81.02,83.12 150.91,86.57 294.41,47.78 293.14,185.41 -1.4,152.04 -237.35,156.56 -255.68,-6.19 -7.38,-65.52 14.33,-69.69 38.3,-112.85 -46.08,-23.36 -33.23,-10.7 -110.48,-53.34l-12.01 5.46c-3.15,17.54 -18.19,35.86 -24.25,54.54 -7.38,22.74 -10.68,48.24 -9.9,72.18 1.95,60.27 29.04,86.94 34,122.36 13.67,8.7 31.36,33.3 45.55,46.33 69.87,64.15 154.01,51.04 223.08,43.93 12.82,12.93 38.73,56.29 55.16,76.19 16.24,19.66 51.43,51.63 77.2,61.37 55.85,-26.74 95.43,-84.43 127.44,-136.79 58.74,-0.2 174.04,32.48 254.53,-73.55 16.78,-22.11 26.84,-55.74 43.68,-73.42 -2.18,-38.55 13.84,-62.05 4.02,-113.43 -7.32,-38.31 -29.84,-63.51 -34.08,-83.53l-117.69 50.63c8.4,21.66 43.71,41.04 37.23,110.28 -13.45,143.8 -200.42,164.1 -246.16,56.88 -16.18,-37.95 -12.93,-85.78 12.05,-117.24 25.59,-32.24 54.68,-37.95 93.37,-48.16 142.21,-37.52 160.7,-67.67 207.1,-82.44 9.11,-23.48 39.05,-33.65 53.52,-85.21 9.35,-33.29 13.73,-92.86 13.64,-127.97 -40.59,26.57 -91.24,85.9 -184.49,106.14z"/>
   <path class="fil0" d="M1801.42 1961.77c-18.36,17.96 -71.34,31.35 -98.98,44.21 -98.36,45.77 -172.86,82.88 -264.86,148.41 -58.86,41.92 -101.27,79.69 -148.13,129.22 -29.97,31.67 -19.85,78.68 -19.84,123.49l-0.92 106.28c2.47,31.82 -5.46,19.91 13.08,26 17.57,-37.68 176.25,-118.85 221.25,-137.87 110.22,-46.57 180.19,-54.96 298.09,-64.43 14.84,-20.08 173.16,-380.41 180.09,-409.21l1.37 -9.8 -14.79 1.53c-49.38,2.13 -132.59,42.98 -166.36,42.17z"/>
   <path class="fil1" d="M1209.14 2521.63l30.75 20.17c4.39,-24.31 5.84,-193.04 2.98,-220.77 -3.74,-36.37 -75.5,-92.94 -102.38,-115.56 -93.43,-78.65 -252.47,-158.15 -266.3,-173.72 -26.24,-2.64 -234.15,-108.64 -350.33,-115.67l183.88 418.89c93.85,22.26 121.96,-4.9 287.94,61 43.11,17.12 196.27,91.11 213.46,125.66z"/>
   <path class="fil1" d="M984.73 1517.92c86.84,29.38 181.37,43.05 271.85,43.08 61.7,0.02 223.59,-15.45 271.86,-46.55l0.24 -172.86c-72.96,-0.5 -195.68,48.45 -272.1,53.23 -44.73,2.8 -211.14,-44.36 -271.71,-53.05l-0.14 176.15z"/>
   <path class="fil0" d="M1710.37 1259.41c-49.09,-6.92 -426.58,-82.39 -441.8,-95.08 -51.73,7.77 -462.65,91.25 -480.79,102.74 61.87,13.88 431.57,95.43 464,96.98 21.18,1.02 417.62,-82.88 463.72,-94.79 3.04,-8.73 11.25,2.4 -5.13,-9.85z"/>
   <path class="fil0" d="M1047.43 1774.72c17.34,10.86 25.73,39.13 7.99,53.15 -30.28,23.93 -44.12,-8.45 -54.89,-20.05 -38.64,78.62 43.59,144.44 108.84,99.15 60.76,-42.16 24.06,-150.26 -61.94,-132.25z"/>
   <path class="fil0" d="M1504.45 1813.01l-12.19 3.91c-10.86,21.27 -36.05,24.55 -49.63,5.45 -16.6,-23.33 0.88,-31.32 9.55,-48.05 -77.02,-13.38 -124.64,80.7 -61.96,131.08 56.87,45.71 138.84,-3.95 114.23,-92.39z"/>
   <path class="fil0" d="M249.23 1486.55c-2.91,21.67 -9.58,47 9.15,63.36 55.91,48.84 78.27,-62.86 115.02,-59.35 6.34,15.06 3.04,28.81 -5.31,43.15 -9.45,16.21 -21.62,13.96 -38.71,15.73 -5.91,17.15 -9.45,17.72 -7.92,35.24 37.59,11.95 58.58,-5.53 73.96,-38.84 21.16,-45.87 17.14,-64.35 -11.2,-96.91 -83.66,-15.91 -54.38,67.99 -106.06,66.18 -8.43,-66.91 47.41,-26.04 37.9,-84.72l-27.59 -0.17c-4.54,6.04 -14.56,10.97 -21.95,22.03 -6.92,10.34 -12.23,27.24 -17.29,34.3z"/>
   <path class="fil2" d="M2218.42 2005.53c-75.52,-14.66 -91.34,97.19 -63.27,128.14 18.91,20.83 51.7,21.94 68.97,-4.48 17.73,-27.13 13.67,-62.03 45.81,-59.64 6.49,34.9 0.07,37.85 -24.7,50.31l-5.35 35.28c65.26,7.35 75.11,-100.35 46.03,-122.02 -23.4,-17.44 -51.31,-6.56 -65.7,16.53 -15.22,24.44 -11.74,51.9 -40.97,56.08 -19.04,-29.27 -2.16,-59.08 34.51,-62.73l4.67 -37.47z"/>
   <path class="fil2" d="M316.2 1389.55l16.49 8.59c15.73,-17.05 17.47,-21.28 16.77,-41.29 -0.69,-19.49 3.58,-40.17 27.12,-35.92 21.47,26.11 -23.28,55.97 -26.21,86.87l22.94 13c24.19,-29.18 31.68,-83.29 69.91,-70.79 6.97,37.59 -13.11,52.61 -47,55.45 -9.86,20.83 -17.4,20.6 -10.15,39.89 48.55,-4.48 70.22,-16.32 87.85,-68.22 16.94,-49.84 -9.46,-83.53 -62.07,-57.17 -0.98,-72.76 -102.01,-45.43 -95.65,69.59z"/>
   <path class="fil2" d="M284.4 2306.23l15 19.5c35.37,-10.67 76.4,-50.94 113.92,-43.24 18.91,35.64 3.74,39.78 -28.19,54.88 -20.98,9.93 -45.36,20.01 -63.86,34.89l17.44 30.95c23,-7.13 99.43,-44.08 110.15,-62.69 12.06,-20.93 6.13,-47.26 -6.08,-67.54 -14.3,-23.74 -31.01,-24.62 -49.69,-36.87l8.97 -35.86c-64.47,19.7 -20.3,36.92 -55.2,58.5 -7.91,4.9 -28.04,14.97 -36.6,18.88 -21.63,9.89 -27.09,6.8 -25.86,28.6z"/>
   <path class="fil0" d="M1991.89 1315.74l22.75 4.64 26.98 3.71c1.65,17.15 3.54,15.85 -3.53,29.49l2.66 13.34 27.36 -19.26c7.43,-39.14 -7.4,-32.43 27.29,-58.2 15.78,-11.72 40.8,-23.55 41.86,-41.56l-13.41 -21.16c-42.93,10.3 -75.58,69.65 -113.9,58.71 -35.11,-35.37 48.61,-73.15 76.66,-100.73l-13.83 -25.51c-24.6,-4.06 -68.02,37.94 -87.47,55.54 -44.48,40.27 -11.56,64.45 6.58,100.99z"/>
   <path class="fil2" d="M1819.52 1098.13l13.97 36.08c38.84,-36.3 5.24,-39.32 15.59,-70.45 5.05,-15.2 33.21,-46.18 41.74,-67.29l-28.28 -20.98c-30.04,25.64 -39.72,77.05 -76.51,93.25 -64.34,-21.97 22.67,-81.33 30.86,-124.13 -15,-9.6 -13.6,-12.24 -30.86,-15.2 -15.39,21.91 -60.92,82.61 -62.39,106.29 -2.92,47.11 52.48,74.19 95.88,62.43z"/>
   <path class="fil2" d="M257.13 1922.56l1.66 -30.65 -16.14 -10.59c-19.97,-1.73 -21.66,-5.6 -24.14,-26.22l73.65 0.15 0.44 -38 -72.91 -1.89c4.29,-46.62 77.93,-22.72 120.54,-27.63l-1.68 -36.14c-16.31,-3.85 -76.4,-4.25 -95.59,-3.2 -31.93,1.75 -44.32,15.63 -52.44,46.05 -15.68,58.68 -8.74,131.58 66.61,128.12z"/>
   <path class="fil2" d="M444.97 1161.52c22.87,24.01 115.56,79.21 73.57,103.95 -44.66,10.54 -70.33,-53.95 -108.85,-63.27l-20.02 25.65c10.16,14.79 79.17,72.24 98.61,76.5 23.32,5.1 41.73,-6.77 55.88,-23.14 23.55,-27.24 16.79,-36.31 21.52,-67.76l35.13 -6.86 -24.66 -24.45c-34.46,1.72 -32.01,14.84 -60.49,-10.81 -13.22,-11.91 -30.69,-27.44 -44.94,-36.69 -16.5,9.96 -15.05,10.79 -25.75,26.88z"/>
   <path class="fil2" d="M201.69 1972.77l-3.03 20.02 1.32 19c27.1,2.1 122.79,-34.84 125.75,7.03 2.59,36.65 -83.21,36.49 -116.82,43.51l5.68 36.16c25.86,0.32 112.39,-11.95 128.97,-29.61 16.18,-17.24 15.34,-46.99 9.38,-68.76 -8,-29.24 -16.66,-26.22 -35.38,-42.97l18.48 -32.21c-40.78,-2.29 -37.27,6.14 -55.64,36.37l-78.71 11.46z"/>
   <path class="fil2" d="M1416.65 900.69c9.73,36.15 5.64,53.45 50.92,64.9 45.74,11.57 52.42,-0.87 76.08,-30.89l16.23 -70.7 29.71 2.31 5.53 -26.74 -64.83 -15.9c-12.82,34.73 -13.49,86.81 -36.36,112.23l-28.86 -1.74c-15.02,-28.97 10.05,-88.28 16.89,-119.67 -11.84,-8.97 -22.01,-10.21 -37.34,-9.85 -8.11,29.52 -11.79,73.18 -27.97,96.05z"/>
   <path class="fil0" d="M2009.71 2387.26c47.65,15.35 106.89,87.74 152.57,38.09 72.83,-79.15 -26.62,-101.1 -48.55,-131.24 -20.03,-2.73 -20.46,-11.43 -39.76,-17.46l-17.84 30.33c26.93,29.14 114,47.27 88.04,90 -34.38,23.54 -81.56,-36.7 -116.84,-44.94l-17.62 35.22z"/>
   <path class="fil2" d="M773.87 1069.03l32.07 -14.14c-3.91,-39.05 -89.87,-122.01 -13.35,-124.45 29.16,25.95 34.73,72.53 60.92,98.59l29.79 -13.93c-4.08,-27.69 -26.49,-59.78 -40.4,-85.21 -18.33,-33.54 -45.87,-42.15 -80.51,-25.69 -77.59,36.88 -19.38,113.48 11.48,164.83z"/>
   <path class="fil2" d="M1149.02 939.04l41.37 -0.5c2.66,-38.16 -10.03,-80.94 2.39,-117.8 18.74,-7.61 17.97,-8.19 36.96,-0.27 13.75,35.99 1.68,79.07 12.03,116.1l36.88 -0.92c-0.6,-52.53 1.53,-91.57 -18.4,-138.78 -26.68,-5.22 -80.26,-27.96 -103.75,12.37 -20.77,35.66 2.07,90.69 -7.48,129.8z"/>
   <path class="fil3" d="M1020.7 824.3l-21.56 -4.59 -19.87 1.97 20.26 106.53c14.58,16.17 11.5,29.46 45.21,32.94 23.12,2.39 50.12,-4.28 65.71,-21.21 26.27,-28.52 0.21,-103.88 -7.08,-140.26l-26.3 -2.14 -11.87 10.9c4.92,24.8 34.36,111.73 3.33,120.66 -40.51,11.67 -45.87,-77.83 -47.83,-104.8z"/>
   <path class="fil2" d="M332.55 1599.76l-23.9 -0.65 -5.81 31.91 27.91 18.99c-0.28,42.89 -21.13,34.27 -54.87,27.82 -4.5,-27.66 11.8,-57.41 10.88,-86.55l-31.05 -2.61c1.74,24.53 -6.7,56.96 -14.15,81.11l-37.4 -2.84 -5.05 33.54c64.67,24.56 164.7,45.37 163.68,-49.79 -0.37,-34.46 -14.26,-32.14 -30.24,-50.93z"/>
   <path class="fil2" d="M2168.7 1791.91l10.67 25.41c23.55,11.15 27.55,14.24 54.42,12.78l-0.04 -37.06c-64.85,-8.8 -42.49,-52.51 14.68,-50.04l6.47 64.13 9.92 17.73 21.28 -6.44 -5.96 -79.52 36.69 -5.42 -3.13 -35.46 -23.4 -0.18c-81.72,9.81 -131.27,-9.06 -121.6,94.07z"/>
   <path class="fil0" d="M2064.97 2534.54c22.73,1.57 41.9,-28.42 53.89,-46.72l-19.98 -18.48 -20.63 18.25c-43.36,-28.12 -46.5,-60.39 -107.94,-53.63 -4.82,5.27 -94.24,65.42 -11.14,116.73l20.81 -28.4c-16.78,-25.44 -33.19,-24.79 -2.12,-53.08 21.65,1.31 81.38,48.99 87.11,65.33z"/>
   <path class="fil2" d="M502.26 1094.56l13.01 21.4c22.18,-2.19 12.94,-7.06 27.7,-11.72 31.82,27.45 53.39,83.62 104.63,63.88 50.62,-19.51 63.53,-72.22 23.76,-109.3l-27.83 23.91 17.95 32.6 -19.05 21.17c-42.37,-3.88 -59.38,-61.63 -91.47,-82.58l-48.7 40.64z"/>
   <path class="fil2" d="M1603.58 869.35c13.27,17.04 10.34,1.93 21.98,20.71 -16.25,39.47 -50.97,84.14 -10.57,119.77 42.77,37.73 85.7,27.14 106.65,-24.04l-29.95 -17.71c-19.72,20.01 -20.7,44.66 -55.04,20.23 -5.11,-34.92 26.92,-78.58 37.09,-114.43 -17.24,-11.85 -40.9,-24.39 -62.98,-24.76l-7.18 20.23z"/>
   <path class="fil2" d="M2143.19 1307.32l9.99 27.73c-38.37,17.48 -95.11,36.45 -87.67,86.98 7.55,51.31 53.27,80.96 99.3,47.25l-14.47 -31.99c-17.01,4.65 -36.47,16.09 -47.92,-2.53 -10.82,-17.6 0.56,-29.36 14.88,-37.59 25.49,-14.66 57.36,-25.7 80.37,-43.28l-27.29 -57.16 -27.19 10.59z"/>
   <path class="fil2" d="M469.67 2547.48c0.21,-21.09 -2.47,-10.98 -9.14,-29.86 30.05,-27.35 88.07,-47.86 70.33,-100.71 -15.66,-46.65 -68.45,-69.84 -107.42,-28.74l22.66 28.04c13.73,-5.62 26.86,-19.97 42.84,-7.87 37.89,28.69 -43.8,66.32 -78.56,97.69l40.22 52.84 19.07 -11.39z"/>
   <path class="fil2" d="M2176.83 1887.29c-6.31,48.91 -29.25,111.19 56.82,109.15l3.41 -33.64c-14.11,-7.75 -31.7,-4.98 -37.63,-21.18 -19.19,-52.4 81.49,-23.77 122.49,-28.54l6.1 -66.02 -28.86 -0.85 -8.54 27.7c-55.44,-1.5 -64.1,-14.59 -113.79,13.38z"/>
   <path class="fil2" d="M2152.3 1647.54l6.84 37.92c28.92,0.98 81.06,-14.6 109.54,-25.45l-5.36 -33.44c-30.77,-3.83 -49.57,18.76 -50.43,-31.96 22.34,-23.81 47.42,-15.16 70.33,-30.09l-10.72 -34.63c-22.82,4.7 -62.53,13.07 -79.22,28.86 -26.63,25.19 -7.66,54.74 1.38,81.45l-42.36 7.34z"/>
   <path class="fil2" d="M1931.41 1170.08l-28.26 32.18 27.61 26.04 75.56 -81.5 -26.14 -26.5c-16.36,12.1 -16.93,22.54 -32.72,21.98 -12.84,-0.46 -23.55,-12.4 -22.71,-25.22 0.89,-13.5 33.21,-44.5 43.06,-56.66l-24.96 -24.97c-17.86,9.93 -47.9,42.41 -54.23,63.71 -13.02,43.81 24.71,51.9 42.79,70.94z"/>
   <path class="fil2" d="M309.57 2129.62l-7.03 12.55 -5.2 -7.93c-29.88,-13.92 -56.06,-2.91 -57.65,31.13 -1.3,27.83 17.17,52.97 16.93,78.78l29.27 -5.95c1.06,-28.1 -24.67,-49.71 -6.1,-70.95 29.04,1.03 25.23,35.15 39.02,58.02l26.09 -7.85 -6.4 -27.11c-29.61,-43.65 21.83,-48.81 40.91,-66.22l-13.07 -30.86c-22.97,-0.64 -48.81,13.43 -56.77,36.39z"/>
   <path class="fil2" d="M2159.29 2281.07l0.03 17.72c39.24,12.26 62.53,12.07 82.75,-25.61 23.94,-44.64 8.06,-59.14 -18.44,-89.52 -26.2,-0.06 -65.88,-25.59 -93.61,-33.7 -10.54,11.89 -13.31,18.89 -14.63,34.61 18.59,10.09 46.27,20.23 66.67,28.26 29.48,11.61 48.4,14.71 30.14,50.61 -15.88,5.44 -27.23,0.44 -42.51,-0.48l-10.4 18.11z"/>
   <path class="fil2" d="M940.29 971.38c-11.15,-13.04 -19.72,-38.14 -21.42,-57.43l52.16 -19.36 -7.82 -24.59c-18.37,-0.55 -23.49,5.16 -43.06,8.98l-14.71 5.1 -11.14 -30.34 -36.04 9.07 47.76 141.2 33.73 -9.06 0.54 -23.57z"/>
   <polygon class="fil2" points="1312.24,811.7 1303.43,938.91 1343.76,938.26 1344.79,886.83 1348.2,860.41 1406.77,864.51 1408.36,835.38 1355.1,830.4 1352.77,797.69 1321.16,790.81 "/>
   <path class="fil4" d="M1312.24 811.7l8.92 -20.89 31.61 6.88c-7.81,-14.68 -26,-11.02 -42.56,-9.07l2.91 4.92 -0.88 18.16z"/>
   <path class="fil5" d="M2038.09 1353.58c7.07,-13.64 5.18,-12.34 3.53,-29.49l-26.98 -3.71c14.25,14.62 5.84,2.11 23.85,12.07l-0.4 21.13z"/>
   <path class="fil6" d="M257.13 1922.56c7.09,-12.08 7.19,-23.39 4.81,-40.13l-19.29 -1.11 16.14 10.59 -1.66 30.65z"/>
   <path class="fil7" d="M2286.1 1818.42l-21.28 6.44 -9.92 -17.73 3.13 21.1c27.67,-0.9 15.84,2.06 28.07,-9.81z"/>
   <path class="fil8" d="M1981.2 1927.87c10.07,-10.66 5.39,4.03 7.57,-15.71 -20.09,1.5 -9.5,-2.41 -20.99,7.44l14.79 -1.53 -1.37 9.8z"/>
   <polygon class="fil9" points="1020.7,824.3 1014.29,811.93 999.14,819.71 "/>
   <polygon class="fil10" points="198.66,1992.79 201.69,1972.77 191.09,1978.58 "/>
   <path class="fil11" d="M1486.51 1560.13c17.8,-3.17 15.74,-0.92 29.19,-10.51 -17.1,3.45 -15.83,1.62 -29.19,10.51z"/>
   <polygon class="fil10" points="1492.26,1816.92 1504.45,1813.01 1500.24,1804.68 "/>
   <path class="fil12" d="M297.34 2134.24l5.2 7.93 7.03 -12.55c-6,3.49 -5.69,2.14 -12.23,4.62z"/>
  </g>
 </g>
</svg>
